<svg width="600" height="150" viewBox="0 0 600 150" fill="none" xmlns="http://www.w3.org/2000/svg">
<path d="M130.032 24.9619C123.298 17.3538 115.071 11.2117 105.863 6.91754C96.6545 2.62334 86.6615 0.268874 76.5048 0H0V103.138C0 115.257 4.81412 126.879 13.3834 135.449C21.9527 144.018 33.5752 148.832 45.694 148.832H74.4159C94.1523 148.832 113.08 140.992 127.036 127.036C140.992 113.08 148.832 94.1524 148.832 74.4161C148.879 56.177 142.183 38.5639 130.032 24.9619ZM100.866 103.112C97.8902 105.616 94.5542 107.658 90.9702 109.169C86.5525 111.045 81.8241 112.081 77.027 112.225H38.5552C37.4506 112.225 36.5552 111.329 36.5552 110.225V34.8919C36.5552 34.3396 37.0029 33.8919 37.5552 33.8919H77.027C87.1866 34.2307 96.8165 38.5062 103.882 45.8149C110.947 53.1236 114.893 62.893 114.888 73.0582C114.902 78.7902 113.653 84.4547 111.23 89.6491C108.806 94.8435 105.268 99.4403 100.866 103.112Z" fill="white"/>
<path d="M238.593 0.584225C259.263 0.584225 277.006 7.9305 291.823 22.623C306.764 37.1911 314.235 54.8097 314.235 75.4789C314.235 96.1481 306.764 113.767 291.823 128.335C277.006 142.778 259.263 150 238.593 150C217.924 150 200.181 142.778 185.364 128.335C170.547 113.767 163.139 96.1481 163.139 75.4789C163.139 54.8097 170.547 37.1911 185.364 22.623C200.181 7.9305 217.924 0.584225 238.593 0.584225ZM238.593 30.2806C226.267 30.2806 215.808 34.7631 207.216 43.728C198.749 52.5685 194.516 63.1521 194.516 75.4789C194.516 87.8057 198.749 98.3893 207.216 107.23C215.808 115.946 226.267 120.304 238.593 120.304C250.92 120.304 261.379 115.946 269.971 107.23C278.562 98.3893 282.858 87.8057 282.858 75.4789C282.858 63.1521 278.562 52.5685 269.971 43.728C261.379 34.7631 250.92 30.2806 238.593 30.2806Z" fill="white"/>
<path d="M357.757 75.1053C357.757 62.7785 362.053 52.2572 370.644 43.5413C379.235 34.7008 389.695 30.2806 402.021 30.2806H416.403C424.62 30.2806 431.593 27.4168 437.321 21.6892C443.173 15.8371 446.099 8.80209 446.099 0.584225H402.021C381.352 0.584225 363.547 7.86824 348.605 22.4363C333.788 36.8798 326.38 54.4362 326.38 75.1053V150C334.971 150 342.317 146.949 348.418 140.848C354.644 134.623 357.757 127.214 357.757 118.623V75.1053Z" fill="white"/>
<path d="M599.506 75.4789V150H523.677C503.008 150 485.202 142.778 470.261 128.335C455.444 113.767 448.035 96.1481 448.035 75.4789C448.035 54.8097 455.444 37.1911 470.261 22.623C485.202 7.9305 503.008 0.584225 523.677 0.584225C544.346 0.584225 562.152 7.9305 577.093 22.623C592.035 37.1911 599.506 54.8097 599.506 75.4789ZM567.755 120.304V75.4789C567.755 63.1521 563.459 52.5685 554.868 43.728C546.401 34.7631 536.004 30.2806 523.677 30.2806C511.35 30.2806 500.891 34.7631 492.3 43.728C483.833 52.5685 479.599 63.1521 479.599 75.4789C479.599 87.8057 483.833 98.3893 492.3 107.23C500.891 115.946 511.35 120.304 523.677 120.304H567.755Z" fill="white"/>
</svg>
